<svg xmlns="http://www.w3.org/2000/svg" viewBox="0 0 1457.12 734.18"><defs><style>.cls-1{fill:#222f3e;}.cls-1,.cls-2,.cls-3,.cls-4{fill-rule:evenodd;}.cls-2{fill:#f60;}.cls-4{fill:#f97316;}</style></defs><title>Recurso 2</title><g id="Capa_2" data-name="Capa 2"><g id="Capa_1-2" data-name="Capa 1"><path class="cls-1" d="M728.56,0C326.19,0,0,164.35,0,367.09S326.19,734.18,728.56,734.18s728.56-164.35,728.56-367.09S1130.93,0,728.56,0Zm0,705.72c-386.65,0-700.1-151.61-700.1-338.63S341.91,28.46,728.56,28.46s700.1,151.61,700.1,338.63S1115.22,705.72,728.56,705.72Z"/><path class="cls-1" d="M613.48,298.32c.72-4.54,36.43-40.84,41.36-45.84,4.44-4.52,3.1-5.33,11.7-5.26,26.67.22,166-1.45,169.88,1-1,2.47-2.24,2.64-4.24,4.58L782.59,297.3c-5.49,2.72-156.53,1.3-169.11,1Zm-228.29,79.3c31,1.49,96.49.1,131.4.1,25.66,0,16,4.49,42.21-23.21,5.85-6.19,10.13-11.26,15.84-17.2,18.58-19.34,7.74-15.76,51-15.61l166,0c3.27-2.93,7.33-9.09,9.89-12.58,4.49-6.13,11.56-4.62,21.11-4.61l15.64,0c6.43,10.82,1.36,8-.61,15.6,24.13.55,58.85,1.38,79-7.83,13.31-6.09,22-14.54,31.31-22.66,3.22-2.82,3.77-2.52,7-6.05a57.16,57.16,0,0,1,7.27-6.7c3.08-2.53,4-4.11,6.52-6.45L989.32,250c6.66-7,8.81-10.41,8.22-18.81-6.15-3.4-8.56-2.43-16.95-2.43l-456.54,0c-2.48,3.74-5.46,5.78-8.65,9.25L401.86,358.5c-3.53,3.69-5.85,6.37-8.71,9.33C385.82,375.41,385.21,374.05,385.19,377.62Z"/><path class="cls-2" d="M827.72,324c2.13-8.43,8-7.51,7-16.18l-25.06.17a77.21,77.21,0,0,1-5.66,6.27l-42.4,56.6c-3.56,3.73-12.44,14.68-12.76,20.4-.12,2,4.71,23.1,9.9,22.34l40.61-54c3-3.83,6.34-8.07,9-12.18,3.86-4.37,10.55-15.07,14.64-16.23,1.14-.31,10.54-1.11,7.73-5.08l-3-2.08Zm90.66,27.71c5.41,1.25,22.55,1.4,26.26-.92,1.63-1,11.55-10.25,10.62-16.47l-18.5-.31c-52.19.07-41.36-4.39-59.16,18.85-2.84,3.82-6.1,7.54-2.54,8.13l31.34.44-5.42,9.8c-3,4.41-3.16,5.85-10.26,5.92.55-5.07,3.92-6.54,5.46-12-5.77-.58-11.61-.35-17.43-.41-4,0-6.17-.72-9.52.79a8.26,8.26,0,0,0-3.38,2.53c-.09.08-6.78,9.14-6.86,9.28-3.49,6.25,2.8,5.76,7.77,5.77,10.12,0,43.45,1.32,50.87-.2s21.92-21.79,21.67-26.78L908,355.6l4.66-9.69c3.5-3.78,3.8-5.93,9.41-6.11-.78,5.65-4.07,7.63-3.65,11.9Zm-96,24.83c.88-7.75,23.11-37.46,30.42-36.63-.57,3.69-5.81,10.45-8,13.17L838,362.13c-4.79,5.41-7.34,13.07-15.63,14.4Zm-34.57,5.3C788,377.32,806.39,355,810,350.21c1.34-1.76,1.69-2.71,2.77-4.24,2.26-3.22,8.51-11.29,12-12,3.14-.6,57.05-.15,60.44.52,1.39,4.79-3.67,9.5-6.22,12.72l-9.92,13c-4.46,7.23-13.28,21.19-21.38,22.92-2.41.51-54.78,1.51-59.9-1.3Zm-171.22.36c5,1.92,23.54,2.15,27.25-.24.47-.3,4.31-6.46,4.81-7l11.06-16c2-3,3.63-4.2,5.79-7.24,5.67-8,6.57-11.25,14-10.78l-21.92,31c-5.76,7.9-16,18.21-9.72,27.34,1.71,4.36,6.34,10.38,7.47,14.33,5.54-4.4,5.19-4.24,8.06-8.87l8.08-11.75c1.77-2.8,7.25-10.27,10.22-13.95l5.67-7.4L698,357.28c7.45-10.19,15-16.58,13.64-23.1L620.73,334c-8.38.05-11.29,2.83-14.69,8.22l-14.61,19.46c-3.84,5.42-12.56,13.95-12.62,20.35,5.7,1.91,17.31,1.89,22.79.82,7.66-2.2,10.89-9.46,16.07-15.86l15.4-20.71c2.29-2.94,3.37-6,9-6.47l-25.5,42.42Zm103.59-6.91c.87-7.74,23.1-37.46,30.42-36.62-.57,3.69-5.81,10.44-8,13.16l-6.83,9.06c-4.78,5.41-7.33,13.08-15.62,14.4Zm-34.57,5.3c.12-4.5,18.56-26.87,22.18-31.62,1.34-1.75,1.69-2.71,2.77-4.24,2.26-3.22,8.51-11.29,12-12,3.13-.6,57-.15,60.43.53,1.4,4.78-3.66,9.49-6.21,12.72l-9.92,13c-4.46,7.23-13.28,21.19-21.38,22.91C743.12,382.39,690.74,383.39,685.63,380.58Z"/><path class="cls-1" d="M818.74,410c-2.71,3.42-8,7.69-11,10.08-4.12,3.43-9.34,4-14.72,4.21.14-3.78,23.14-35.41,30.46-26.48,3.19,3.9-4.46,12-4.74,12.19Zm-35.86-13.86,2.7,2.67L755.15,434.9c14.29.45,29.06.17,43.33.12,3.35,0,6.78.1,10.06.08,6,0,5.22.92,10.2-1.13a35.18,35.18,0,0,0,13.53-9.48c.42-1.19,19.22-21.66,22.72-26.51.13-.26.35-.55.45-.74s.32-.51.42-.73l1-3a12.17,12.17,0,0,0-.32-4.12c-9.4-4.28-47.62-3.32-59.86-2.57l10.06,9-23.91.33Zm46.53,38.76,31.34-37.66L881.6,397l-10.27-10.2,26.24-.14-8.8,13.73,23.45-11c6-3.43,5.68-2.77,14.26-2.79l16.71.45c-2.66,2.09-5,3-8.47,4.85l-8.88,4.26c-10.46,5.58-19.42,9.51-29.67,14.43,1.43,7.71,4.35,16.1,4.7,24.43l-21.47.07a11.42,11.42,0,0,1-3.67-.47l-5.51-14.33h0l-14.28,14C851.92,436.21,835.12,435.24,829.41,434.9Z"/><polygon class="cls-1" points="696.62 472.98 677.75 472.98 667 486.78 685.87 486.78 696.62 472.98"/><polygon class="cls-1" points="561.38 517.15 573.94 517.15 591.86 494.14 579.3 494.14 561.38 517.15"/><polygon class="cls-1" points="762.1 494.14 749.54 494.14 746.44 498.12 759 498.12 762.1 494.14"/><polygon class="cls-1" points="417.91 517.15 430.47 517.15 448.39 494.14 435.83 494.14 417.91 517.15"/><polygon class="cls-1" points="813.14 517.72 825.7 517.72 843.84 494.43 831.28 494.43 813.14 517.72"/><polygon class="cls-1" points="666 486.78 665.52 488.68 667 486.78 666 486.78"/><path class="cls-1" d="M1377.61,466.49h-79.38a29.4,29.4,0,0,0-13.09,3.62,39.32,39.32,0,0,0-3.88,2.23c-2.33-4-6.64-5.85-11.35-5.85h-53.65a25.39,25.39,0,0,0-8.67,1.68l1.86-2.39h-15.71l16-20.6H1160l-16,20.6h-7.7l-.55.71h-62.9a29.44,29.44,0,0,0-13.09,3.62,38.05,38.05,0,0,0-3.87,2.23c-2.33-4-6.64-5.85-11.36-5.85H990.83a20.6,20.6,0,0,0-2.72.18l.14-.18H894.33l-3.47,4.45c-2.41-3-6.2-4.45-10.32-4.45H812.37l-3.44,4.41c-2.45-3-6.25-4.41-10.36-4.41H744.93a20.6,20.6,0,0,0-2.72.18l.18-.23c3.08-4,4.77-8.84,2.88-13.74-2-5.15-6.73-7.52-12.07-7.52H658.73l-20,25.72c-2.45-3-6.24-4.41-10.35-4.41H574.69a25.39,25.39,0,0,0-8.67,1.68l1.86-2.39H552.17l16.05-20.6H518.41l-16,20.6h-7.7l-2.13,2.74a14.33,14.33,0,0,0-7.67-2H431.22a29.44,29.44,0,0,0-13.09,3.62c-.57.28-1.13.59-1.69.9a20,20,0,0,0,.38-4.32,18.91,18.91,0,0,0-.39-3.36l-1.18-5.74-142-.34c-13.82,0-20.88,4.31-28,15.57L223.5,502.11l-.05.08c-7,9.95-20.09,22-20.21,34.85l-.05,5.21,4.93,1.67c9.56,3.25,27.92,3.45,37.85,1.49l.31-.06.3-.09a29.87,29.87,0,0,0,9.91-5l-.39.59,8.32,3.25c7.35,2.88,28.52,3.91,40.63,1.36a27.71,27.71,0,0,0-1.28,9.16,23.57,23.57,0,0,0,3.73,11.87c1.65,3.77,4.42,7.07,7.1,10.15,1.32,1.52,5.26,5.78,5.78,7.63l3.92,13.84L355,557.92l14.52-20c2.15,4.75,6.78,6.91,11.9,6.91h53.64a29.53,29.53,0,0,0,13.09-3.62,37.43,37.43,0,0,0,6.29-4c1.92,5.21,6.74,7.59,12.09,7.59h52.31l.26-1.06a15.35,15.35,0,0,0,5.78,1.06h53.65a20.6,20.6,0,0,0,2.72-.18l-.14.18h49.8l19.12-24.55-1,4-2,8.6-.43,1.55-8.12,10.41h49.07l.44-1.73a14.66,14.66,0,0,0,7.17,1.73h56.23l-22,28.27h49.8l21.47-27.56H830.2a29.57,29.57,0,0,0,13.09-3.62,40.31,40.31,0,0,0,4.57-2.7c2.36,3.85,6.59,5.61,11.21,5.61h68.17l3.44-4.41c2.45,3,6.25,4.41,10.36,4.41h57L1016.28,531,1013,544.81h63.7a29.53,29.53,0,0,0,13.09-3.62,37.43,37.43,0,0,0,6.29-4c1.91,5.21,6.74,7.59,12.09,7.59h52.31l.26-1.06a15.35,15.35,0,0,0,5.78,1.06h53.65a29.57,29.57,0,0,0,13.09-3.62,36.58,36.58,0,0,0,7.17-4.69l-2,8.31h63.7a29.5,29.5,0,0,0,13.09-3.62,32.25,32.25,0,0,0,11-8.67l15.93-20.46c2.45-3.15,4-6.88,3.6-10.72h4.75Zm-1013.06,66-15.31,21.11-21.93,28.71c-1.69-6-10.86-12.6-13.42-19.2-9.37-13.82,5.93-29.41,14.55-41.36l32.84-46.83c-12.41-.8-22.59,16.76-29.65,27.25l-16.57,24.22c-.75.87-6.51,10.18-7.21,10.64-5.55,3.62-33.38,3.27-40.81.37l42.69-64.19a25.75,25.75,0,0,0-18,9.79l-23.06,31.33c-7.76,9.68-12.6,20.66-24.07,24-8.2,1.62-25.6,1.65-34.13-1.25.09-9.67,13.14-22.58,18.9-30.77l21.87-29.45c5.1-8.16,9.46-12.36,22-12.43l136.16.33c2,9.86-9.26,19.53-20.43,35l-15.9,21.58Zm88.93-4.39a24.84,24.84,0,0,1-8.57,6.65,22.43,22.43,0,0,1-9.83,2.84H381.44c-2.81,0-4.63-1-5.41-2.84s-.18-4.12,1.79-6.65l34.95-44.87a25.06,25.06,0,0,1,8.62-6.72,22.33,22.33,0,0,1,9.83-2.84h53.65c2.81,0,4.62.94,5.4,2.84s.17,4.14-1.84,6.72Zm59.73,9.49H466.55c-2.86,0-4.65-1-5.35-2.91s-.12-4.19,1.85-6.72l30-38.53h-7.69L498.19,473h7.7l16-20.6h31.55l-16,20.6h15.71l-12.83,16.47H524.6L503.14,517h15.11Zm4.66-27.8,10.25-13.16h8.55l-10.25,13.16Zm70.51,25a22.43,22.43,0,0,1-9.83,2.84H524.9c-2.81,0-4.62-1-5.4-2.84s-.18-4.12,1.79-6.65l34.94-44.87a25,25,0,0,1,8.63-6.72,22.29,22.29,0,0,1,9.83-2.84h53.65c2.81,0,4.62.94,5.4,2.84s.16,4.14-1.85,6.72L597,528.12A24.84,24.84,0,0,1,588.38,534.77Zm93.55,2.84H653.21l.11-.14v-.4l.67-2.44,2-8.67,9.49-37.28-38.11,48.93H595.86l66.38-85.23h71c2.84,0,4.61,1,5.35,2.91s.13,4.19-1.84,6.72l-24.58,31.56a25.53,25.53,0,0,1-8.63,6.73c-3.77,1.94-7,2.91-9.89,2.91h-3Zm14.4-27.38-.09.12,0-.11Zm53.38,27.38H695.14c-2.81,0-4.62-1-5.41-2.84s-.18-4.12,1.8-6.65l34.94-44.87a25,25,0,0,1,8.63-6.72,22.29,22.29,0,0,1,9.83-2.84h53.64c2.81,0,4.63.94,5.41,2.84s.16,4.14-1.85,6.72L785.22,505a24.72,24.72,0,0,1-8.57,6.65,22.32,22.32,0,0,1-9.83,2.85h-33.1l-2.1,2.7h45Zm98.89-8.78a24.84,24.84,0,0,1-8.57,6.65,22.43,22.43,0,0,1-9.83,2.84H797.1l-21.47,27.56H744.08l71.81-92.19h64.65c2.81,0,4.6,1,5.35,2.91s.11,4.21-1.9,6.79Zm75.13,8.78H859.07c-2.81,0-4.62-1-5.4-2.84s-.18-4.12,1.79-6.65l42.39-54.43H929.4l-33.85,43.47h12.56L942,473.69h31.55Zm71.87,0H941c-2.81,0-4.62-1-5.41-2.84s-.18-4.12,1.8-6.65l34.94-44.87a25,25,0,0,1,8.63-6.72,22.29,22.29,0,0,1,9.83-2.84h53.64c2.81,0,4.62.94,5.41,2.84s.16,4.14-1.85,6.72L1031.12,505a24.72,24.72,0,0,1-8.57,6.65,22.32,22.32,0,0,1-9.83,2.85h-33.1l-2.1,2.7h45Zm99.47-9.52a24.81,24.81,0,0,1-8.59,6.68,22.43,22.43,0,0,1-9.83,2.84h-54.56l4.92-20.45h45l2.1-2.7H1041c-2.81,0-4.62-1-5.41-2.85s-.18-4.11,1.8-6.65l16.91-21.71a25.06,25.06,0,0,1,8.62-6.72,22.33,22.33,0,0,1,9.83-2.84h64.66l-15.94,20.45H1077.4l-3.09,4h33.1c2.81,0,4.62.95,5.4,2.84s.18,4.12-1.81,6.68Zm59.71,9.52h-46.66c-2.86,0-4.65-1-5.35-2.91s-.12-4.19,1.85-6.72l30-38.53h-7.69L1139.76,473h7.7l16-20.6h31.55L1179,473h15.71l-12.84,16.47h-15.71L1144.71,517h15.11Zm4.66-27.8,10.25-13.16h8.55L1168,509.81Zm79.08,18.31a24.93,24.93,0,0,1-8.57,6.65,22.43,22.43,0,0,1-9.83,2.84h-53.65c-2.81,0-4.62-1-5.4-2.84s-.18-4.12,1.79-6.65l34.94-44.87a25,25,0,0,1,8.63-6.72,22.29,22.29,0,0,1,9.83-2.84h53.65c2.81,0,4.62.94,5.4,2.84s.16,4.14-1.85,6.72Zm64.32-34-3.1,4h33.1c2.81,0,4.62.95,5.41,2.84s.18,4.12-1.81,6.68l-15.94,20.45a24.86,24.86,0,0,1-8.58,6.68,22.46,22.46,0,0,1-9.84,2.84h-54.56l4.92-20.45h45l2.1-2.7h-33.1c-2.81,0-4.62-1-5.4-2.85s-.18-4.11,1.79-6.65l16.91-21.71a25.06,25.06,0,0,1,8.62-6.72,22.33,22.33,0,0,1,9.84-2.84h64.65L1347,494.14Z"/><polygon class="cls-1" points="1008 494.14 995.44 494.14 992.34 498.12 1004.9 498.12 1008 494.14"/><polygon class="cls-1" points="1202.95 517.15 1215.51 517.15 1233.43 494.14 1220.87 494.14 1202.95 517.15"/><path class="cls-3" d="M1028.78,407.44l6.27,0c.13-2.65-.09-5.16.19-7.79-.36.18-.11-.23-.27.37-.13.45,0,6-.11,7.05-.68.35-4.7,0-6,.12Z"/><path class="cls-3" d="M1049.7,407.43l-.1-.21c-1.56-.24-5,.15-6.54-.12a45.43,45.43,0,0,1-.09-5.25,31.46,31.46,0,0,0-.11,5.56Z"/><path class="cls-3" d="M1063.94,406.46v-1.2c-.15-.06-.13,0-.27-.1a4.37,4.37,0,0,0,.07.79C1063.77,406.26,1063.69,406.46,1063.94,406.46Z"/><path class="cls-3" d="M1063.72,409.44h.22v-1.05c-.24.08-.14-.05-.19.4A4.86,4.86,0,0,0,1063.72,409.44Z"/><path class="cls-3" d="M1014,409.3a2.39,2.39,0,0,0,.22.12c0-.27.07-.88-.22-.9Z"/><path class="cls-3" d="M1041,382.64c-.09-.19,0-.12-.12-.21h-.62C1040.28,382.73,1040.68,382.63,1041,382.64Z"/><path class="cls-3" d="M1014,406.09c.22-.1.11,0,.19-.25a1.2,1.2,0,0,0,0-.38l-.2,0Z"/><path class="cls-3" d="M1038.08,393.45c.55-.08.27,0,.34-.27l-.38-.07Z"/><path class="cls-4" d="M1077.4,151.26c-5-2.28-588.61-.1-701.86-.73-9.11-.05-16,7.18-24.38,14.35l-10.34,8.63C334.4,179,303.91,201,301,206c-5.16,2.21-3.87,1.87-7.88,4.89l-1.2.84c-3.76,2.77-3.06,2.32-3.24,5.5,2.51.14,8.45.29,16,.4h1.2c9.88.12,22.22.16,33.19,0h47.73l-18.45,21.06L249.87,373.94l0,0-.55.63h64.17c13.7-.05,27.39-.1,41.06-.06,16.66.06,11.57,1.9,32-20.26,15.58-16.86,35.53-36.62,50.88-54.14l25.88-27.06c8.65-9,17-17.93,25.25-26.77L514,219.24c30.42-1.64,100.79-.22,135.62-.22,112.63,0,227.69-.8,340,0,7.66,0,7.49,0,12.54-4.15l23.32-18.73c3.14-2.52,3-1.56,4.93-4.9,4.43-3.32,7.4-5.66,12-9.2l8.64-7.36c1.81-1.52,1.89-1.32,3.44-2.58,1.86-1.5,3.73-3.33,5.89-5.08l15.14-11.93C1078.26,152.48,1077.13,156.05,1077.4,151.26Z"/></g></g></svg>