<svg xmlns="http://www.w3.org/2000/svg" viewBox="0 0 1152.44 432.14"><defs><style>.cls-1{fill:#333;}.cls-1,.cls-2,.cls-3,.cls-4{fill-rule:evenodd;}.cls-2{fill:#f60;}.cls-4{fill:#f97316;}</style></defs><title>Recurso 4</title><g id="Capa_2" data-name="Capa 2"><g id="Capa_1-2" data-name="Capa 1"><path class="cls-1" d="M403,148.13c.72-4.54,36.44-40.84,41.36-45.85,4.44-4.51,3.1-5.32,11.7-5.25,26.67.22,166-1.45,169.89,1-1,2.46-2.25,2.64-4.25,4.58l-49.58,44.46c-5.5,2.72-156.53,1.3-169.12,1Zm-228.29,79.3c31,1.48,96.5.1,131.4.1,25.66,0,16.05,4.49,42.21-23.21,5.85-6.19,10.13-11.26,15.84-17.2,18.59-19.35,7.74-15.76,50.95-15.62h166c3.27-2.93,7.33-9.09,9.89-12.58,4.49-6.13,11.56-4.62,21.11-4.61l15.65,0c6.42,10.82,1.35,8-.62,15.6,24.13.54,58.85,1.38,79-7.83,13.31-6.09,22-14.55,31.31-22.66,3.23-2.82,3.78-2.52,7-6.05a56.44,56.44,0,0,1,7.27-6.7c3.08-2.53,4-4.11,6.52-6.45L778.88,99.8c6.66-7,8.81-10.41,8.22-18.81-6.14-3.4-8.56-2.43-17-2.43l-456.54,0c-2.48,3.74-5.46,5.79-8.65,9.26L191.42,208.31c-3.53,3.69-5.84,6.37-8.71,9.33C175.38,225.21,174.77,223.86,174.75,227.43Z"/><path class="cls-2" d="M617.28,173.79c2.13-8.42,8-7.5,7-16.17l-25,.17a79.33,79.33,0,0,1-5.67,6.27l-42.4,56.6c-3.56,3.73-12.43,14.68-12.76,20.4-.11,2,4.71,23.1,9.9,22.34l40.62-54c3-3.83,6.33-8.07,9-12.18,3.86-4.37,10.55-15.08,14.65-16.23,1.13-.31,10.53-1.11,7.73-5.09l-3-2.08Zm90.66,27.72c5.41,1.25,22.56,1.4,26.26-.92,1.64-1,11.56-10.25,10.62-16.47l-18.5-.31c-52.19.07-41.35-4.39-59.15,18.85-2.85,3.82-6.11,7.54-2.54,8.13l31.34.43L690.54,221c-3,4.41-3.16,5.85-10.25,5.92.54-5.07,3.91-6.55,5.46-12-5.78-.58-11.62-.35-17.43-.41-4,0-6.18-.72-9.53.79a8.33,8.33,0,0,0-3.38,2.53c-.09.07-6.78,9.14-6.86,9.28-3.49,6.25,2.8,5.76,7.77,5.77,10.12,0,43.45,1.32,50.87-.2s21.93-21.79,21.67-26.79l-31.34-.51,4.66-9.69c3.5-3.78,3.8-5.93,9.41-6.11-.77,5.65-4.07,7.63-3.65,11.9Zm-96,24.83c.88-7.75,23.11-37.46,30.42-36.63-.57,3.69-5.81,10.44-8,13.17l-6.82,9.06c-4.79,5.41-7.33,13.07-15.63,14.4Zm-34.57,5.3c.12-4.51,18.56-26.88,22.18-31.62,1.34-1.76,1.69-2.71,2.77-4.24,2.27-3.22,8.52-11.29,12-12,3.13-.59,57-.15,60.43.53,1.39,4.79-3.67,9.5-6.22,12.72l-9.91,13c-4.47,7.23-13.29,21.19-21.38,22.92-2.42.51-54.79,1.51-59.91-1.3ZM406.17,232c5,1.92,23.54,2.15,27.25-.24.47-.3,4.31-6.46,4.82-7l11.06-16c2-3,3.62-4.19,5.78-7.23,5.68-8,6.57-11.25,14-10.78l-21.93,31c-5.75,7.9-16,18.2-9.71,27.34,1.7,4.36,6.33,10.38,7.46,14.33,5.55-4.4,5.19-4.24,8.06-8.87l8.08-11.75c1.78-2.8,7.25-10.27,10.22-14l5.67-7.4,10.63-14.27c7.46-10.19,15-16.58,13.64-23.1l-90.93-.22c-8.38,0-11.29,2.83-14.69,8.22L381,211.45c-3.84,5.42-12.56,14-12.62,20.35,5.7,1.91,17.32,1.89,22.8.82,7.65-2.21,10.89-9.46,16.07-15.86l15.39-20.71c2.29-2.94,3.38-6,9-6.48L406.17,232Zm103.59-6.91c.88-7.74,23.11-37.46,30.42-36.62-.57,3.68-5.81,10.44-8,13.16l-6.82,9.06c-4.79,5.41-7.34,13.08-15.63,14.4Zm-34.57,5.3c.12-4.51,18.56-26.87,22.18-31.62,1.34-1.75,1.69-2.71,2.77-4.24,2.26-3.22,8.51-11.29,12-12,3.14-.6,57.05-.15,60.44.52,1.39,4.79-3.67,9.5-6.22,12.72l-9.92,13C552,216,543.19,230,535.09,231.69,532.68,232.2,480.31,233.2,475.19,230.39Z"/><path class="cls-1" d="M608.31,259.81c-2.72,3.42-8,7.69-11,10.07-4.13,3.44-9.34,4.05-14.73,4.22.14-3.78,23.14-35.41,30.46-26.48,3.19,3.9-4.46,12-4.73,12.19ZM572.45,246l2.69,2.67-30.42,36.09c14.28.45,29,.17,43.32.12,3.35,0,6.78.1,10.06.08,6,0,5.22.91,10.21-1.13a35.25,35.25,0,0,0,13.53-9.48c.41-1.19,19.21-21.66,22.71-26.51.13-.26.36-.56.45-.74s.32-.51.43-.73l1-3a12.15,12.15,0,0,0-.32-4.12c-9.4-4.28-47.62-3.32-59.86-2.57l10.06,9-23.9.33ZM619,284.71l31.33-37.66,20.85-.23-10.27-10.2,26.24-.14-8.8,13.73,23.46-11c6-3.43,5.68-2.77,14.25-2.8l16.71.46c-2.66,2.08-5,3-8.46,4.85L715.41,246c-10.47,5.58-19.43,9.51-29.67,14.43,1.42,7.71,4.35,16.1,4.7,24.43l-21.48.07a11.42,11.42,0,0,1-3.67-.47l-5.51-14.33h0l-14.27,14C641.48,286,624.68,285.05,619,284.71Z"/><path class="cls-1" d="M1110.07,377.9a24.91,24.91,0,0,1-8.59,6.68q-5.61,2.84-9.83,2.84h-54.57L1042,367h45l2.11-2.69H1056c-2.82,0-4.63-.95-5.41-2.85s-.18-4.12,1.79-6.65l16.91-21.71a25,25,0,0,1,8.63-6.72,22.32,22.32,0,0,1,9.83-2.85h64.65L1136.51,344H1092.4l-3.1,4h33.1c2.82,0,4.63.95,5.41,2.84s.18,4.12-1.81,6.68l-15.93,20.45Zm-105-10.94L1023,344h-12.56l-17.92,23Zm23,11,35-44.87c2-2.58,2.63-4.83,1.84-6.72s-2.59-2.85-5.4-2.85h-53.65a22.36,22.36,0,0,0-9.83,2.85,25.11,25.11,0,0,0-8.63,6.72l-34.94,44.87c-2,2.53-2.57,4.76-1.79,6.65s2.59,2.84,5.4,2.84h53.65a22.43,22.43,0,0,0,9.83-2.84,24.84,24.84,0,0,0,8.57-6.65Zm-83.74,9.49H897.69c-2.87,0-4.66-1-5.35-2.91s-.13-4.19,1.84-6.73l30-38.52h-7.7l12.83-16.48H937l16-20.59h31.55l-16,20.59h15.71l-12.83,16.48H955.74l-21.47,27.56h15.11l-5,20.6Zm-59.71-9.52,15.94-20.45q3-3.84,1.81-6.68c-.79-1.89-2.6-2.84-5.41-2.84h-33.1l3.1-4h44.11L927,323.49H862.35a22.36,22.36,0,0,0-9.83,2.85,25.06,25.06,0,0,0-8.62,6.72L827,354.77c-2,2.53-2.58,4.76-1.79,6.65s2.59,2.85,5.4,2.85h33.1L861.6,367h-45l-4.92,20.46h54.56a22.5,22.5,0,0,0,9.84-2.84,24.86,24.86,0,0,0,8.58-6.68Zm-90.17-30,3.1-4H785l-3.1,4Zm17.65,19-26.94,20.46H730.6c-2.81,0-4.62-.95-5.4-2.84s-.18-4.12,1.79-6.65l34.94-44.87a25,25,0,0,1,8.63-6.72,22.32,22.32,0,0,1,9.83-2.85H834c2.82,0,4.63.95,5.41,2.85s.16,4.14-1.85,6.72l-16.91,21.71a24.84,24.84,0,0,1-8.57,6.65,22.32,22.32,0,0,1-9.83,2.85h-33.1l-2.1,2.69Zm-98.82,20.46,49.79-63.93H731.52L697.67,367H685.11L719,323.49H687.41L645,377.93c-2,2.53-2.57,4.76-1.79,6.65s2.59,2.84,5.41,2.84Zm-98-19.89,18.14-23.29H620.85L602.7,367.53Zm22.9,11.11a24.84,24.84,0,0,1-8.57,6.65,22.43,22.43,0,0,1-9.83,2.84h-33.1L565.2,415.69H533.64l71.81-92.2H670.1c2.81,0,4.61,1,5.35,2.92s.11,4.21-1.9,6.79l-35.39,45.44Zm-89.6-30.71,3.1-4H539.1l-3.1,4Zm17.65,19h-45l2.1-2.69h33.1a22.32,22.32,0,0,0,9.83-2.85,24.84,24.84,0,0,0,8.57-6.65l16.91-21.71c2-2.58,2.64-4.83,1.85-6.72s-2.59-2.85-5.4-2.85H534.49a22.32,22.32,0,0,0-9.83,2.85,25,25,0,0,0-8.63,6.72l-34.94,44.87c-2,2.53-2.58,4.76-1.79,6.65s2.59,2.84,5.4,2.84h54.57L566.21,367Zm-94.72,20.46H442.77l.11-.14v-.4l.67-2.44,2-8.67,10-39.18h19.86l10.75-13.81H467.32L417,387.42H385.42l66.39-85.23h71c2.83,0,4.6,1,5.35,2.91s.12,4.19-1.85,6.72l-24.58,31.56a25.44,25.44,0,0,1-8.63,6.73c-3.77,1.94-7.05,2.91-9.88,2.91h-3l-8.69,34.4ZM363.5,367l17.92-23H368.86l-17.92,23Zm23,11,34.95-44.87c2-2.58,2.63-4.83,1.84-6.72s-2.59-2.85-5.4-2.85H364.25a22.36,22.36,0,0,0-9.83,2.85,25,25,0,0,0-8.62,6.72l-34.95,44.87c-2,2.53-2.57,4.76-1.79,6.65s2.59,2.84,5.41,2.84h53.64a22.43,22.43,0,0,0,9.83-2.84,24.84,24.84,0,0,0,8.57-6.65Zm-83.74,9.49H256.12c-2.87,0-4.66-1-5.35-2.91s-.13-4.19,1.84-6.73l30-38.52h-7.7l12.83-16.48h7.7l16-20.59H343l-16,20.59h15.71l-12.83,16.48H314.17L292.7,366.82h15.11l-5,20.6ZM220,367,238,344H225.4l-17.93,23Zm23,11L278,333.06c2-2.58,2.63-4.83,1.85-6.72s-2.6-2.85-5.41-2.85H220.79a22.36,22.36,0,0,0-9.84,2.85,25.06,25.06,0,0,0-8.62,6.72l-34.94,44.87c-2,2.53-2.58,4.76-1.8,6.65s2.6,2.84,5.41,2.84h53.64a22.46,22.46,0,0,0,9.84-2.84,25,25,0,0,0,8.57-6.65ZM56.6,387.23,99.29,323a25.75,25.75,0,0,0-18,9.79L58.2,364.16c-7.75,9.68-12.6,20.66-24.06,24-8.21,1.63-25.61,1.66-34.14-1.24.09-9.67,13.15-22.58,18.9-30.77l21.88-29.45c5.09-8.16,9.45-12.36,22-12.43l136.17.33c2,9.86-9.26,19.53-20.43,35l-15.91,21.58-8.5,11.2-15.31,21.1-21.93,28.72c-1.69-6-10.86-12.61-13.41-19.21-9.38-13.81,5.93-29.4,14.55-41.35l32.83-46.84c-12.4-.79-22.58,16.77-29.65,27.25l-16.56,24.22c-.76.88-6.52,10.19-7.22,10.65C91.86,390.48,64,390.13,56.6,387.23Z"/><path class="cls-3" d="M818.35,257.25l6.26,0c.13-2.65-.09-5.16.19-7.79-.35.18-.11-.23-.27.37-.13.45,0,6-.11,7.05-.68.35-4.7,0-6,.12Z"/><path class="cls-3" d="M839.26,257.24l-.1-.21c-1.56-.24-5,.15-6.54-.12a45.43,45.43,0,0,1-.09-5.25,33.5,33.5,0,0,0-.11,5.56Z"/><path class="cls-3" d="M853.5,256.27v-1.2c-.14-.06-.13,0-.27-.11a5.65,5.65,0,0,0,.07.8C853.34,256.07,853.25,256.27,853.5,256.27Z"/><path class="cls-3" d="M853.28,259.25h.22v-1.05c-.24.07-.13-.05-.19.4Q853.28,258.92,853.28,259.25Z"/><path class="cls-3" d="M803.52,259.11a1.67,1.67,0,0,0,.23.12c0-.27.06-.88-.23-.9Z"/><path class="cls-3" d="M830.57,232.45c-.09-.19,0-.12-.12-.21h-.61C829.84,232.54,830.24,232.44,830.57,232.45Z"/><path class="cls-3" d="M803.52,255.9c.22-.1.12,0,.19-.25a1.21,1.21,0,0,0,0-.38l-.2,0Z"/><path class="cls-3" d="M827.64,243.26c.56-.08.27,0,.34-.27l-.38-.08Z"/><path class="cls-4" d="M867,1.07c-5-2.29-588.61-.1-701.86-.73-9.11-.05-16,7.17-24.38,14.35l-10.34,8.63C124,28.81,93.47,50.84,90.58,55.78c-5.15,2.2-3.86,1.87-7.88,4.89l-1.2.83c-3.76,2.78-3.06,2.33-3.24,5.51,2.52.14,8.46.29,16,.39v0h1.19c9.88.12,22.22.16,33.19,0h47.73L157.92,88.48,39.43,223.75l0,0-.56.63h64.17c13.7,0,27.39-.1,41.06-.06,16.66.06,11.57,1.9,32-20.26,15.58-16.86,35.54-36.62,50.88-54.14L253,122.9c8.64-9,17-17.93,25.25-26.77L303.53,69c30.42-1.64,100.8-.22,135.62-.22,112.64,0,227.7-.79,340,0,7.66,0,7.49,0,12.54-4.16L815.05,46c3.14-2.52,3-1.56,4.93-4.9,4.43-3.32,7.4-5.66,12-9.2l8.64-7.36c1.81-1.53,1.89-1.32,3.44-2.58,1.86-1.5,3.73-3.33,5.89-5.08L865.05,4.93C867.82,2.29,866.69,5.86,867,1.07Z"/></g></g></svg>